# xmcd
#
# Track frame offsets: 
#        151
#        12460
#        25334
#        39427
#        51419
#        63348
#        76092
#        90499
#        105779
#        119669
#        132286
#        144822
#        156404
#        169132
#        183316
#        196629
#        207658
#        221720
#
# Disc length: 3119 seconds
#
# Revision: 0
# Processed by: cddbd v1.4PL0 Copyright (c) Steve Scherf et al.
# Submitted via: ExactAudioCopy v0.90b4
#
DISCID=f50c2d12
DTITLE=Jimmy Witherspoon feat. Jay McShann And His Orchestra - The Bes
DTITLE=t Of
DYEAR=1900
DGENRE=Salon
TTITLE0=Gone With The Blues
TTITLE1=Ernestine
TTITLE2=Roll On Katy
TTITLE3=Voodoo Woman Blues
TTITLE4=I Want A Little Girl
TTITLE5=Have You Ever Loved A Woman?
TTITLE6=Confessing The Blues
TTITLE7=Hard-Working Man's Blues
TTITLE8=Shipyard Woman Blues
TTITLE9=Cain River Blues
TTITLE10=Hey Mr. Landlord
TTITLE11=All My Geets Are Gone
TTITLE12=Practice What You Preach
TTITLE13=Strange Woman Blues
TTITLE14=Third Floor Blues
TTITLE15=Geneva Blues
TTITLE16=Wee Baby Blues
TTITLE17=Daddy Pinocchio
EXTD=
EXTT0=
EXTT1=
EXTT2=
EXTT3=
EXTT4=
EXTT5=
EXTT6=
EXTT7=
EXTT8=
EXTT9=
EXTT10=
EXTT11=
EXTT12=
EXTT13=
EXTT14=
EXTT15=
EXTT16=
EXTT17=
PLAYORDER=
